<mxfile host="app.diagrams.net" agent="Mozilla/5.0 (Windows NT 10.0; Win64; x64) AppleWebKit/537.36 (KHTML, like Gecko) Chrome/135.0.0.0 Safari/537.36" version="27.0.4">
  <diagram id="prtHgNgQTEPvFCAcTncT" name="Page-1">
    <mxGraphModel dx="772" dy="440" grid="1" gridSize="10" guides="1" tooltips="1" connect="1" arrows="1" fold="1" page="1" pageScale="1" pageWidth="827" pageHeight="1169" math="0" shadow="0">
      <root>
        <mxCell id="0" />
        <mxCell id="1" parent="0" />
        <mxCell id="sELhnHyBY6YNZZSK1Kz5-4" value="&lt;h1&gt;&lt;span style=&quot;background-color: transparent; color: light-dark(rgb(0, 0, 0), rgb(255, 255, 255));&quot;&gt;&lt;font data-font-src=&quot;https://fonts.googleapis.com/css?family=Baloo+Bhaijaan+2&quot; face=&quot;Baloo Bhaijaan 2&quot;&gt;به نام خدا&lt;/font&gt;&lt;/span&gt;&lt;/h1&gt;&lt;div&gt;&lt;font data-font-src=&quot;https://fonts.googleapis.com/css?family=Baloo+Bhaijaan+2&quot; face=&quot;Baloo Bhaijaan 2&quot;&gt;&lt;br&gt;&lt;/font&gt;&lt;h3&gt;&lt;font data-font-src=&quot;https://fonts.googleapis.com/css?family=Baloo+Bhaijaan+2&quot; face=&quot;Baloo Bhaijaan 2&quot;&gt;&amp;nbsp; &amp;nbsp;پروژه تحلیل گر لغوی - فاز دوم (پیاده سازی ماشین متناهی قطعی تحلیل گر لغوی زبان جاوا)&lt;/font&gt;&lt;/h3&gt;&lt;/div&gt;&lt;h4&gt;&lt;font data-font-src=&quot;https://fonts.googleapis.com/css?family=Baloo+Bhaijaan+2&quot; face=&quot;Baloo Bhaijaan 2&quot;&gt;استاد: دکتر پورهاشم&lt;/font&gt;&lt;/h4&gt;&lt;h4&gt;&lt;font data-font-src=&quot;https://fonts.googleapis.com/css?family=Baloo+Bhaijaan+2&quot; face=&quot;Baloo Bhaijaan 2&quot;&gt;اعضای تیم: علی نجفی - امیررضا روشنی&lt;/font&gt;&lt;/h4&gt;&lt;div&gt;&lt;br&gt;&lt;/div&gt;" style="text;html=1;align=right;verticalAlign=middle;whiteSpace=wrap;rounded=0;" vertex="1" parent="1">
          <mxGeometry x="300" y="60" width="450" height="180" as="geometry" />
        </mxCell>
        <mxCell id="sELhnHyBY6YNZZSK1Kz5-7" value="null:&amp;nbsp; &amp;nbsp;null" style="text;html=1;align=left;verticalAlign=middle;whiteSpace=wrap;rounded=0;" vertex="1" parent="1">
          <mxGeometry x="80" y="310" width="560" height="30" as="geometry" />
        </mxCell>
        <mxCell id="sELhnHyBY6YNZZSK1Kz5-10" value="" style="edgeStyle=orthogonalEdgeStyle;rounded=0;orthogonalLoop=1;jettySize=auto;html=1;" edge="1" parent="1" source="sELhnHyBY6YNZZSK1Kz5-11">
          <mxGeometry relative="1" as="geometry">
            <mxPoint x="210" y="390" as="targetPoint" />
          </mxGeometry>
        </mxCell>
        <mxCell id="sELhnHyBY6YNZZSK1Kz5-11" value="" style="ellipse;whiteSpace=wrap;html=1;" vertex="1" parent="1">
          <mxGeometry x="130" y="370" width="40" height="40" as="geometry" />
        </mxCell>
        <mxCell id="sELhnHyBY6YNZZSK1Kz5-15" value="" style="edgeStyle=orthogonalEdgeStyle;rounded=0;orthogonalLoop=1;jettySize=auto;html=1;" edge="1" parent="1" source="sELhnHyBY6YNZZSK1Kz5-13" target="sELhnHyBY6YNZZSK1Kz5-14">
          <mxGeometry relative="1" as="geometry" />
        </mxCell>
        <mxCell id="sELhnHyBY6YNZZSK1Kz5-13" value="" style="ellipse;whiteSpace=wrap;html=1;" vertex="1" parent="1">
          <mxGeometry x="210" y="370" width="40" height="40" as="geometry" />
        </mxCell>
        <mxCell id="sELhnHyBY6YNZZSK1Kz5-17" value="" style="edgeStyle=orthogonalEdgeStyle;rounded=0;orthogonalLoop=1;jettySize=auto;html=1;" edge="1" parent="1" source="sELhnHyBY6YNZZSK1Kz5-14" target="sELhnHyBY6YNZZSK1Kz5-16">
          <mxGeometry relative="1" as="geometry" />
        </mxCell>
        <mxCell id="sELhnHyBY6YNZZSK1Kz5-14" value="" style="ellipse;whiteSpace=wrap;html=1;" vertex="1" parent="1">
          <mxGeometry x="290" y="370" width="40" height="40" as="geometry" />
        </mxCell>
        <mxCell id="sELhnHyBY6YNZZSK1Kz5-21" value="" style="edgeStyle=orthogonalEdgeStyle;rounded=0;orthogonalLoop=1;jettySize=auto;html=1;" edge="1" parent="1" source="sELhnHyBY6YNZZSK1Kz5-16">
          <mxGeometry relative="1" as="geometry">
            <mxPoint x="450" y="390" as="targetPoint" />
          </mxGeometry>
        </mxCell>
        <mxCell id="sELhnHyBY6YNZZSK1Kz5-16" value="" style="ellipse;whiteSpace=wrap;html=1;" vertex="1" parent="1">
          <mxGeometry x="370" y="370" width="40" height="40" as="geometry" />
        </mxCell>
        <mxCell id="sELhnHyBY6YNZZSK1Kz5-24" value="" style="edgeStyle=orthogonalEdgeStyle;rounded=0;orthogonalLoop=1;jettySize=auto;html=1;" edge="1" parent="1">
          <mxGeometry relative="1" as="geometry">
            <mxPoint x="130" y="389.74" as="targetPoint" />
            <mxPoint x="90" y="389.74" as="sourcePoint" />
          </mxGeometry>
        </mxCell>
        <mxCell id="sELhnHyBY6YNZZSK1Kz5-25" value="" style="ellipse;shape=doubleEllipse;whiteSpace=wrap;html=1;aspect=fixed;" vertex="1" parent="1">
          <mxGeometry x="450" y="370" width="40" height="40" as="geometry" />
        </mxCell>
        <mxCell id="sELhnHyBY6YNZZSK1Kz5-27" value="n" style="text;html=1;align=center;verticalAlign=middle;whiteSpace=wrap;rounded=0;" vertex="1" parent="1">
          <mxGeometry x="155" y="369" width="60" height="30" as="geometry" />
        </mxCell>
        <mxCell id="sELhnHyBY6YNZZSK1Kz5-28" value="u" style="text;html=1;align=center;verticalAlign=middle;whiteSpace=wrap;rounded=0;" vertex="1" parent="1">
          <mxGeometry x="240" y="369" width="60" height="30" as="geometry" />
        </mxCell>
        <mxCell id="sELhnHyBY6YNZZSK1Kz5-29" value="l" style="text;html=1;align=center;verticalAlign=middle;whiteSpace=wrap;rounded=0;" vertex="1" parent="1">
          <mxGeometry x="320" y="369" width="60" height="30" as="geometry" />
        </mxCell>
        <mxCell id="sELhnHyBY6YNZZSK1Kz5-30" value="l" style="text;html=1;align=center;verticalAlign=middle;whiteSpace=wrap;rounded=0;" vertex="1" parent="1">
          <mxGeometry x="400" y="369" width="60" height="30" as="geometry" />
        </mxCell>
        <mxCell id="sELhnHyBY6YNZZSK1Kz5-46" value="Boolean:&amp;nbsp; &amp;nbsp;(true) | (false)" style="text;html=1;align=left;verticalAlign=middle;whiteSpace=wrap;rounded=0;" vertex="1" parent="1">
          <mxGeometry x="80" y="518" width="370" height="30" as="geometry" />
        </mxCell>
        <mxCell id="sELhnHyBY6YNZZSK1Kz5-65" value="" style="edgeStyle=orthogonalEdgeStyle;rounded=0;orthogonalLoop=1;jettySize=auto;html=1;curved=1;" edge="1" parent="1" source="sELhnHyBY6YNZZSK1Kz5-48" target="sELhnHyBY6YNZZSK1Kz5-64">
          <mxGeometry relative="1" as="geometry" />
        </mxCell>
        <mxCell id="sELhnHyBY6YNZZSK1Kz5-67" value="" style="edgeStyle=orthogonalEdgeStyle;rounded=0;orthogonalLoop=1;jettySize=auto;html=1;curved=1;entryX=0;entryY=1;entryDx=0;entryDy=0;exitX=0.94;exitY=0.279;exitDx=0;exitDy=0;exitPerimeter=0;" edge="1" parent="1" source="sELhnHyBY6YNZZSK1Kz5-48" target="sELhnHyBY6YNZZSK1Kz5-50">
          <mxGeometry relative="1" as="geometry">
            <mxPoint x="180" y="610.25" as="sourcePoint" />
            <mxPoint x="215" y="579.25" as="targetPoint" />
          </mxGeometry>
        </mxCell>
        <mxCell id="sELhnHyBY6YNZZSK1Kz5-48" value="" style="ellipse;whiteSpace=wrap;html=1;" vertex="1" parent="1">
          <mxGeometry x="130" y="615" width="40" height="40" as="geometry" />
        </mxCell>
        <mxCell id="sELhnHyBY6YNZZSK1Kz5-49" value="" style="edgeStyle=orthogonalEdgeStyle;rounded=0;orthogonalLoop=1;jettySize=auto;html=1;" edge="1" parent="1" source="sELhnHyBY6YNZZSK1Kz5-50" target="sELhnHyBY6YNZZSK1Kz5-52">
          <mxGeometry relative="1" as="geometry" />
        </mxCell>
        <mxCell id="sELhnHyBY6YNZZSK1Kz5-50" value="" style="ellipse;whiteSpace=wrap;html=1;" vertex="1" parent="1">
          <mxGeometry x="230" y="575" width="40" height="40" as="geometry" />
        </mxCell>
        <mxCell id="sELhnHyBY6YNZZSK1Kz5-51" value="" style="edgeStyle=orthogonalEdgeStyle;rounded=0;orthogonalLoop=1;jettySize=auto;html=1;" edge="1" parent="1" source="sELhnHyBY6YNZZSK1Kz5-52" target="sELhnHyBY6YNZZSK1Kz5-54">
          <mxGeometry relative="1" as="geometry" />
        </mxCell>
        <mxCell id="sELhnHyBY6YNZZSK1Kz5-52" value="" style="ellipse;whiteSpace=wrap;html=1;" vertex="1" parent="1">
          <mxGeometry x="310" y="575" width="40" height="40" as="geometry" />
        </mxCell>
        <mxCell id="sELhnHyBY6YNZZSK1Kz5-53" value="" style="edgeStyle=orthogonalEdgeStyle;rounded=0;orthogonalLoop=1;jettySize=auto;html=1;" edge="1" parent="1" source="sELhnHyBY6YNZZSK1Kz5-54">
          <mxGeometry relative="1" as="geometry">
            <mxPoint x="470" y="595" as="targetPoint" />
          </mxGeometry>
        </mxCell>
        <mxCell id="sELhnHyBY6YNZZSK1Kz5-54" value="" style="ellipse;whiteSpace=wrap;html=1;" vertex="1" parent="1">
          <mxGeometry x="390" y="575" width="40" height="40" as="geometry" />
        </mxCell>
        <mxCell id="sELhnHyBY6YNZZSK1Kz5-56" value="" style="ellipse;shape=doubleEllipse;whiteSpace=wrap;html=1;aspect=fixed;" vertex="1" parent="1">
          <mxGeometry x="470" y="575" width="40" height="40" as="geometry" />
        </mxCell>
        <mxCell id="sELhnHyBY6YNZZSK1Kz5-57" value="t" style="text;html=1;align=center;verticalAlign=middle;whiteSpace=wrap;rounded=0;" vertex="1" parent="1">
          <mxGeometry x="170" y="593" width="60" height="30" as="geometry" />
        </mxCell>
        <mxCell id="sELhnHyBY6YNZZSK1Kz5-58" value="r" style="text;html=1;align=center;verticalAlign=middle;whiteSpace=wrap;rounded=0;" vertex="1" parent="1">
          <mxGeometry x="260" y="574" width="60" height="30" as="geometry" />
        </mxCell>
        <mxCell id="sELhnHyBY6YNZZSK1Kz5-59" value="u" style="text;html=1;align=center;verticalAlign=middle;whiteSpace=wrap;rounded=0;" vertex="1" parent="1">
          <mxGeometry x="340" y="574" width="60" height="30" as="geometry" />
        </mxCell>
        <mxCell id="sELhnHyBY6YNZZSK1Kz5-60" value="e" style="text;html=1;align=center;verticalAlign=middle;whiteSpace=wrap;rounded=0;" vertex="1" parent="1">
          <mxGeometry x="420" y="574" width="60" height="30" as="geometry" />
        </mxCell>
        <mxCell id="sELhnHyBY6YNZZSK1Kz5-69" value="" style="edgeStyle=orthogonalEdgeStyle;rounded=0;orthogonalLoop=1;jettySize=auto;html=1;" edge="1" parent="1" source="sELhnHyBY6YNZZSK1Kz5-64" target="sELhnHyBY6YNZZSK1Kz5-68">
          <mxGeometry relative="1" as="geometry" />
        </mxCell>
        <mxCell id="sELhnHyBY6YNZZSK1Kz5-64" value="" style="ellipse;whiteSpace=wrap;html=1;" vertex="1" parent="1">
          <mxGeometry x="230" y="645" width="40" height="40" as="geometry" />
        </mxCell>
        <mxCell id="sELhnHyBY6YNZZSK1Kz5-71" value="" style="edgeStyle=orthogonalEdgeStyle;rounded=0;orthogonalLoop=1;jettySize=auto;html=1;" edge="1" parent="1" source="sELhnHyBY6YNZZSK1Kz5-68" target="sELhnHyBY6YNZZSK1Kz5-70">
          <mxGeometry relative="1" as="geometry" />
        </mxCell>
        <mxCell id="sELhnHyBY6YNZZSK1Kz5-68" value="" style="ellipse;whiteSpace=wrap;html=1;" vertex="1" parent="1">
          <mxGeometry x="310" y="645" width="40" height="40" as="geometry" />
        </mxCell>
        <mxCell id="sELhnHyBY6YNZZSK1Kz5-73" value="" style="edgeStyle=orthogonalEdgeStyle;rounded=0;orthogonalLoop=1;jettySize=auto;html=1;" edge="1" parent="1" source="sELhnHyBY6YNZZSK1Kz5-70" target="sELhnHyBY6YNZZSK1Kz5-72">
          <mxGeometry relative="1" as="geometry" />
        </mxCell>
        <mxCell id="sELhnHyBY6YNZZSK1Kz5-70" value="" style="ellipse;whiteSpace=wrap;html=1;" vertex="1" parent="1">
          <mxGeometry x="390" y="645" width="40" height="40" as="geometry" />
        </mxCell>
        <mxCell id="sELhnHyBY6YNZZSK1Kz5-74" value="" style="edgeStyle=orthogonalEdgeStyle;rounded=0;orthogonalLoop=1;jettySize=auto;html=1;entryX=0.5;entryY=1;entryDx=0;entryDy=0;exitX=0.583;exitY=0.017;exitDx=0;exitDy=0;exitPerimeter=0;" edge="1" parent="1" source="sELhnHyBY6YNZZSK1Kz5-72" target="sELhnHyBY6YNZZSK1Kz5-56">
          <mxGeometry relative="1" as="geometry">
            <mxPoint x="350" y="745" as="sourcePoint" />
            <mxPoint x="300" y="715" as="targetPoint" />
          </mxGeometry>
        </mxCell>
        <mxCell id="sELhnHyBY6YNZZSK1Kz5-72" value="" style="ellipse;whiteSpace=wrap;html=1;" vertex="1" parent="1">
          <mxGeometry x="470" y="645" width="40" height="40" as="geometry" />
        </mxCell>
        <mxCell id="sELhnHyBY6YNZZSK1Kz5-77" value="f" style="text;html=1;align=center;verticalAlign=middle;whiteSpace=wrap;rounded=0;" vertex="1" parent="1">
          <mxGeometry x="170" y="655" width="60" height="30" as="geometry" />
        </mxCell>
        <mxCell id="sELhnHyBY6YNZZSK1Kz5-78" value="a" style="text;html=1;align=center;verticalAlign=middle;whiteSpace=wrap;rounded=0;" vertex="1" parent="1">
          <mxGeometry x="255" y="662" width="60" height="30" as="geometry" />
        </mxCell>
        <mxCell id="sELhnHyBY6YNZZSK1Kz5-79" value="l" style="text;html=1;align=center;verticalAlign=middle;whiteSpace=wrap;rounded=0;" vertex="1" parent="1">
          <mxGeometry x="340" y="662" width="60" height="30" as="geometry" />
        </mxCell>
        <mxCell id="sELhnHyBY6YNZZSK1Kz5-80" value="s" style="text;html=1;align=center;verticalAlign=middle;whiteSpace=wrap;rounded=0;" vertex="1" parent="1">
          <mxGeometry x="420" y="662" width="60" height="30" as="geometry" />
        </mxCell>
        <mxCell id="sELhnHyBY6YNZZSK1Kz5-81" value="e" style="text;html=1;align=center;verticalAlign=middle;whiteSpace=wrap;rounded=0;" vertex="1" parent="1">
          <mxGeometry x="466" y="617" width="60" height="30" as="geometry" />
        </mxCell>
        <mxCell id="sELhnHyBY6YNZZSK1Kz5-86" value="" style="edgeStyle=orthogonalEdgeStyle;rounded=0;orthogonalLoop=1;jettySize=auto;html=1;" edge="1" parent="1">
          <mxGeometry relative="1" as="geometry">
            <mxPoint x="130" y="634.76" as="targetPoint" />
            <mxPoint x="90" y="634.76" as="sourcePoint" />
          </mxGeometry>
        </mxCell>
        <mxCell id="sELhnHyBY6YNZZSK1Kz5-87" value="ID:&amp;nbsp; &amp;nbsp;[_$a-zA-Z][_$a-zA-Z0-9]*" style="text;html=1;align=left;verticalAlign=middle;whiteSpace=wrap;rounded=0;" vertex="1" parent="1">
          <mxGeometry x="80" y="763" width="370" height="30" as="geometry" />
        </mxCell>
        <mxCell id="sELhnHyBY6YNZZSK1Kz5-117" value="" style="edgeStyle=orthogonalEdgeStyle;rounded=0;orthogonalLoop=1;jettySize=auto;html=1;entryX=0.125;entryY=0.5;entryDx=0;entryDy=0;entryPerimeter=0;" edge="1" parent="1">
          <mxGeometry relative="1" as="geometry">
            <mxPoint x="171" y="849" as="sourcePoint" />
            <mxPoint x="314" y="849" as="targetPoint" />
          </mxGeometry>
        </mxCell>
        <mxCell id="sELhnHyBY6YNZZSK1Kz5-90" value="" style="ellipse;whiteSpace=wrap;html=1;" vertex="1" parent="1">
          <mxGeometry x="137" y="829" width="40" height="40" as="geometry" />
        </mxCell>
        <mxCell id="sELhnHyBY6YNZZSK1Kz5-97" value="" style="ellipse;shape=doubleEllipse;whiteSpace=wrap;html=1;aspect=fixed;" vertex="1" parent="1">
          <mxGeometry x="315" y="829" width="40" height="40" as="geometry" />
        </mxCell>
        <mxCell id="sELhnHyBY6YNZZSK1Kz5-115" value="" style="edgeStyle=orthogonalEdgeStyle;rounded=0;orthogonalLoop=1;jettySize=auto;html=1;" edge="1" parent="1">
          <mxGeometry relative="1" as="geometry">
            <mxPoint x="137" y="848.76" as="targetPoint" />
            <mxPoint x="97" y="848.76" as="sourcePoint" />
          </mxGeometry>
        </mxCell>
        <mxCell id="sELhnHyBY6YNZZSK1Kz5-118" value="&lt;span style=&quot;text-align: left;&quot;&gt;[_$a-zA-Z]&lt;/span&gt;" style="text;html=1;align=center;verticalAlign=middle;whiteSpace=wrap;rounded=0;" vertex="1" parent="1">
          <mxGeometry x="210" y="822" width="60" height="30" as="geometry" />
        </mxCell>
        <mxCell id="sELhnHyBY6YNZZSK1Kz5-119" value="" style="edgeStyle=orthogonalEdgeStyle;rounded=0;orthogonalLoop=1;jettySize=auto;html=1;curved=1;exitX=1;exitY=1;exitDx=0;exitDy=0;" edge="1" parent="1" source="sELhnHyBY6YNZZSK1Kz5-97" target="sELhnHyBY6YNZZSK1Kz5-97">
          <mxGeometry relative="1" as="geometry">
            <mxPoint x="349" y="872" as="sourcePoint" />
            <mxPoint x="330" y="872" as="targetPoint" />
            <Array as="points">
              <mxPoint x="360" y="863" />
              <mxPoint x="360" y="892" />
              <mxPoint x="330" y="892" />
            </Array>
          </mxGeometry>
        </mxCell>
        <mxCell id="sELhnHyBY6YNZZSK1Kz5-121" value="&lt;span style=&quot;text-align: left;&quot;&gt;[_$a-zA-Z0-9]&lt;/span&gt;" style="text;html=1;align=center;verticalAlign=middle;whiteSpace=wrap;rounded=0;" vertex="1" parent="1">
          <mxGeometry x="300" y="886" width="100" height="30" as="geometry" />
        </mxCell>
        <mxCell id="sELhnHyBY6YNZZSK1Kz5-122" value="int:&amp;nbsp; &amp;nbsp;([+-] | λ)[0-9]+" style="text;html=1;align=left;verticalAlign=middle;whiteSpace=wrap;rounded=0;" vertex="1" parent="1">
          <mxGeometry x="80" y="966" width="370" height="30" as="geometry" />
        </mxCell>
        <mxCell id="sELhnHyBY6YNZZSK1Kz5-132" value="" style="edgeStyle=orthogonalEdgeStyle;rounded=0;orthogonalLoop=1;jettySize=auto;html=1;" edge="1" parent="1" source="sELhnHyBY6YNZZSK1Kz5-124" target="sELhnHyBY6YNZZSK1Kz5-131">
          <mxGeometry relative="1" as="geometry" />
        </mxCell>
        <mxCell id="sELhnHyBY6YNZZSK1Kz5-138" value="" style="edgeStyle=orthogonalEdgeStyle;rounded=0;orthogonalLoop=1;jettySize=auto;html=1;curved=1;entryX=0.5;entryY=1;entryDx=0;entryDy=0;" edge="1" parent="1" source="sELhnHyBY6YNZZSK1Kz5-124" target="sELhnHyBY6YNZZSK1Kz5-125">
          <mxGeometry relative="1" as="geometry">
            <mxPoint x="150" y="1172" as="targetPoint" />
            <Array as="points">
              <mxPoint x="170" y="1092" />
              <mxPoint x="430" y="1092" />
            </Array>
          </mxGeometry>
        </mxCell>
        <mxCell id="sELhnHyBY6YNZZSK1Kz5-124" value="" style="ellipse;whiteSpace=wrap;html=1;" vertex="1" parent="1">
          <mxGeometry x="130" y="1032" width="40" height="40" as="geometry" />
        </mxCell>
        <mxCell id="sELhnHyBY6YNZZSK1Kz5-125" value="" style="ellipse;shape=doubleEllipse;whiteSpace=wrap;html=1;aspect=fixed;" vertex="1" parent="1">
          <mxGeometry x="410" y="1032" width="40" height="40" as="geometry" />
        </mxCell>
        <mxCell id="sELhnHyBY6YNZZSK1Kz5-126" value="" style="edgeStyle=orthogonalEdgeStyle;rounded=0;orthogonalLoop=1;jettySize=auto;html=1;" edge="1" parent="1">
          <mxGeometry relative="1" as="geometry">
            <mxPoint x="130" y="1051.76" as="targetPoint" />
            <mxPoint x="90" y="1051.76" as="sourcePoint" />
          </mxGeometry>
        </mxCell>
        <mxCell id="sELhnHyBY6YNZZSK1Kz5-130" value="" style="edgeStyle=orthogonalEdgeStyle;rounded=0;orthogonalLoop=1;jettySize=auto;html=1;curved=1;exitX=1;exitY=1;exitDx=0;exitDy=0;" edge="1" parent="1">
          <mxGeometry relative="1" as="geometry">
            <mxPoint x="445" y="1037" as="sourcePoint" />
            <mxPoint x="426" y="1032" as="targetPoint" />
            <Array as="points">
              <mxPoint x="456" y="1037" />
              <mxPoint x="456" y="1008" />
              <mxPoint x="426" y="1008" />
            </Array>
          </mxGeometry>
        </mxCell>
        <mxCell id="sELhnHyBY6YNZZSK1Kz5-133" value="" style="edgeStyle=orthogonalEdgeStyle;rounded=0;orthogonalLoop=1;jettySize=auto;html=1;" edge="1" parent="1" source="sELhnHyBY6YNZZSK1Kz5-131" target="sELhnHyBY6YNZZSK1Kz5-125">
          <mxGeometry relative="1" as="geometry" />
        </mxCell>
        <mxCell id="sELhnHyBY6YNZZSK1Kz5-131" value="" style="ellipse;whiteSpace=wrap;html=1;" vertex="1" parent="1">
          <mxGeometry x="260" y="1032" width="40" height="40" as="geometry" />
        </mxCell>
        <mxCell id="sELhnHyBY6YNZZSK1Kz5-134" value="&lt;span style=&quot;text-align: left;&quot;&gt;[+-]&lt;/span&gt;" style="text;html=1;align=center;verticalAlign=middle;whiteSpace=wrap;rounded=0;" vertex="1" parent="1">
          <mxGeometry x="180" y="1026" width="60" height="30" as="geometry" />
        </mxCell>
        <mxCell id="sELhnHyBY6YNZZSK1Kz5-135" value="&lt;span style=&quot;text-align: left;&quot;&gt;[0-9]&lt;/span&gt;" style="text;html=1;align=center;verticalAlign=middle;whiteSpace=wrap;rounded=0;" vertex="1" parent="1">
          <mxGeometry x="320" y="1026" width="60" height="30" as="geometry" />
        </mxCell>
        <mxCell id="sELhnHyBY6YNZZSK1Kz5-136" value="&lt;span style=&quot;text-align: left;&quot;&gt;[0-9]&lt;/span&gt;" style="text;html=1;align=center;verticalAlign=middle;whiteSpace=wrap;rounded=0;" vertex="1" parent="1">
          <mxGeometry x="420" y="984" width="40" height="30" as="geometry" />
        </mxCell>
        <mxCell id="sELhnHyBY6YNZZSK1Kz5-139" value="&lt;span style=&quot;text-align: left;&quot;&gt;[0-9]&lt;/span&gt;" style="text;html=1;align=center;verticalAlign=middle;whiteSpace=wrap;rounded=0;" vertex="1" parent="1">
          <mxGeometry x="270" y="1088" width="60" height="30" as="geometry" />
        </mxCell>
        <mxCell id="sELhnHyBY6YNZZSK1Kz5-278" value="float:&amp;nbsp; &amp;nbsp;([+-] | λ) &lt;font style=&quot;color: light-dark(rgb(0, 0, 0), rgb(153, 0, 0));&quot;&gt;(&lt;/font&gt;&lt;font style=&quot;&quot;&gt;&lt;font style=&quot;color: light-dark(rgb(0, 0, 0), rgb(0, 153, 0));&quot;&gt;(&lt;/font&gt;[0-9]+ ((e[0-9]+) | \. |&amp;nbsp;λ)&lt;/font&gt;&lt;span style=&quot;color: rgb(0, 153, 0);&quot;&gt;)&amp;nbsp;&lt;/span&gt;| &lt;span style=&quot;color: rgb(50, 181, 50);&quot;&gt;(&lt;/span&gt;[0-9]* \. [0-9]+ ((e[0-9]+) | λ)&lt;span style=&quot;color: rgb(50, 181, 50);&quot;&gt;)&lt;/span&gt;&lt;span style=&quot;color: rgb(153, 0, 0);&quot;&gt;)&lt;/span&gt;" style="text;html=1;align=left;verticalAlign=middle;whiteSpace=wrap;rounded=0;" vertex="1" parent="1">
          <mxGeometry x="80" y="1270" width="440" height="30" as="geometry" />
        </mxCell>
        <mxCell id="sELhnHyBY6YNZZSK1Kz5-293" value="" style="edgeStyle=orthogonalEdgeStyle;rounded=0;orthogonalLoop=1;jettySize=auto;html=1;curved=1;" edge="1" parent="1" source="sELhnHyBY6YNZZSK1Kz5-281" target="sELhnHyBY6YNZZSK1Kz5-292">
          <mxGeometry relative="1" as="geometry">
            <Array as="points">
              <mxPoint x="257" y="1570" />
            </Array>
          </mxGeometry>
        </mxCell>
        <mxCell id="sELhnHyBY6YNZZSK1Kz5-295" value="" style="edgeStyle=orthogonalEdgeStyle;rounded=0;orthogonalLoop=1;jettySize=auto;html=1;curved=1;" edge="1" parent="1" source="sELhnHyBY6YNZZSK1Kz5-281" target="sELhnHyBY6YNZZSK1Kz5-294">
          <mxGeometry relative="1" as="geometry">
            <Array as="points">
              <mxPoint x="162" y="1628" />
            </Array>
          </mxGeometry>
        </mxCell>
        <mxCell id="sELhnHyBY6YNZZSK1Kz5-281" value="" style="ellipse;whiteSpace=wrap;html=1;" vertex="1" parent="1">
          <mxGeometry x="132" y="1568" width="40" height="40" as="geometry" />
        </mxCell>
        <mxCell id="sELhnHyBY6YNZZSK1Kz5-283" value="" style="edgeStyle=orthogonalEdgeStyle;rounded=0;orthogonalLoop=1;jettySize=auto;html=1;" edge="1" parent="1">
          <mxGeometry relative="1" as="geometry">
            <mxPoint x="132" y="1587.76" as="targetPoint" />
            <mxPoint x="92" y="1587.76" as="sourcePoint" />
          </mxGeometry>
        </mxCell>
        <mxCell id="sELhnHyBY6YNZZSK1Kz5-314" value="" style="edgeStyle=orthogonalEdgeStyle;rounded=0;orthogonalLoop=1;jettySize=auto;html=1;curved=1;exitX=1;exitY=0;exitDx=0;exitDy=0;fillColor=#a20025;strokeColor=#6F0000;" edge="1" parent="1" source="sELhnHyBY6YNZZSK1Kz5-292" target="sELhnHyBY6YNZZSK1Kz5-313">
          <mxGeometry relative="1" as="geometry" />
        </mxCell>
        <mxCell id="sELhnHyBY6YNZZSK1Kz5-292" value="" style="ellipse;whiteSpace=wrap;html=1;" vertex="1" parent="1">
          <mxGeometry x="252" y="1510" width="40" height="40" as="geometry" />
        </mxCell>
        <mxCell id="sELhnHyBY6YNZZSK1Kz5-303" value="" style="edgeStyle=orthogonalEdgeStyle;rounded=0;orthogonalLoop=1;jettySize=auto;html=1;fillColor=#008a00;strokeColor=#005700;curved=1;" edge="1" parent="1" source="sELhnHyBY6YNZZSK1Kz5-294" target="sELhnHyBY6YNZZSK1Kz5-302">
          <mxGeometry relative="1" as="geometry" />
        </mxCell>
        <mxCell id="sELhnHyBY6YNZZSK1Kz5-294" value="" style="ellipse;whiteSpace=wrap;html=1;" vertex="1" parent="1">
          <mxGeometry x="252" y="1608" width="40" height="40" as="geometry" />
        </mxCell>
        <mxCell id="sELhnHyBY6YNZZSK1Kz5-296" value="&lt;div style=&quot;text-align: left;&quot;&gt;&lt;span style=&quot;background-color: transparent; color: light-dark(rgb(0, 0, 0), rgb(255, 255, 255));&quot;&gt;[+-]&lt;/span&gt;&lt;/div&gt;" style="text;html=1;align=center;verticalAlign=middle;whiteSpace=wrap;rounded=0;" vertex="1" parent="1">
          <mxGeometry x="172" y="1538" width="60" height="30" as="geometry" />
        </mxCell>
        <mxCell id="sELhnHyBY6YNZZSK1Kz5-297" value="&lt;div style=&quot;text-align: left;&quot;&gt;&lt;span style=&quot;background-color: transparent; color: light-dark(rgb(0, 0, 0), rgb(255, 255, 255));&quot;&gt;[0-9]&lt;/span&gt;&lt;/div&gt;" style="text;html=1;align=center;verticalAlign=middle;whiteSpace=wrap;rounded=0;" vertex="1" parent="1">
          <mxGeometry x="172" y="1623" width="60" height="30" as="geometry" />
        </mxCell>
        <mxCell id="sELhnHyBY6YNZZSK1Kz5-298" value="" style="edgeStyle=orthogonalEdgeStyle;rounded=0;orthogonalLoop=1;jettySize=auto;html=1;curved=1;exitX=1;exitY=1;exitDx=0;exitDy=0;" edge="1" parent="1">
          <mxGeometry relative="1" as="geometry">
            <mxPoint x="286.00030303030303" y="1644.030303030303" as="sourcePoint" />
            <mxPoint x="267.00030303030303" y="1649.030303030303" as="targetPoint" />
            <Array as="points">
              <mxPoint x="297.00030303030303" y="1644.030303030303" />
              <mxPoint x="297.00030303030303" y="1673.030303030303" />
              <mxPoint x="267.00030303030303" y="1673.030303030303" />
            </Array>
          </mxGeometry>
        </mxCell>
        <mxCell id="sELhnHyBY6YNZZSK1Kz5-299" value="" style="edgeStyle=orthogonalEdgeStyle;rounded=0;orthogonalLoop=1;jettySize=auto;html=1;curved=1;exitX=1;exitY=1;exitDx=0;exitDy=0;" edge="1" parent="1">
          <mxGeometry relative="1" as="geometry">
            <mxPoint x="288.00030303030303" y="1544.030303030303" as="sourcePoint" />
            <mxPoint x="269.00030303030303" y="1549.030303030303" as="targetPoint" />
            <Array as="points">
              <mxPoint x="299.00030303030303" y="1544.030303030303" />
              <mxPoint x="299.00030303030303" y="1573.030303030303" />
              <mxPoint x="269.00030303030303" y="1573.030303030303" />
            </Array>
          </mxGeometry>
        </mxCell>
        <mxCell id="sELhnHyBY6YNZZSK1Kz5-300" value="&lt;div style=&quot;text-align: left;&quot;&gt;&lt;span style=&quot;background-color: transparent; color: light-dark(rgb(0, 0, 0), rgb(255, 255, 255));&quot;&gt;[0-9]&lt;/span&gt;&lt;/div&gt;" style="text;html=1;align=center;verticalAlign=middle;whiteSpace=wrap;rounded=0;" vertex="1" parent="1">
          <mxGeometry x="252" y="1667" width="60" height="30" as="geometry" />
        </mxCell>
        <mxCell id="sELhnHyBY6YNZZSK1Kz5-301" value="&lt;div style=&quot;text-align: left;&quot;&gt;&lt;span style=&quot;background-color: transparent; color: light-dark(rgb(0, 0, 0), rgb(255, 255, 255));&quot;&gt;[0-9]&lt;/span&gt;&lt;/div&gt;" style="text;html=1;align=center;verticalAlign=middle;whiteSpace=wrap;rounded=0;" vertex="1" parent="1">
          <mxGeometry x="255" y="1567" width="60" height="30" as="geometry" />
        </mxCell>
        <mxCell id="sELhnHyBY6YNZZSK1Kz5-302" value="" style="ellipse;whiteSpace=wrap;html=1;strokeColor=light-dark(#000000,#00CC00);" vertex="1" parent="1">
          <mxGeometry x="332" y="1710" width="40" height="40" as="geometry" />
        </mxCell>
        <mxCell id="sELhnHyBY6YNZZSK1Kz5-304" value="" style="edgeStyle=orthogonalEdgeStyle;rounded=0;orthogonalLoop=1;jettySize=auto;html=1;fillColor=#008a00;strokeColor=#005700;curved=1;exitX=0.945;exitY=0.39;exitDx=0;exitDy=0;exitPerimeter=0;entryX=1;entryY=0;entryDx=0;entryDy=0;" edge="1" parent="1" source="sELhnHyBY6YNZZSK1Kz5-292" target="sELhnHyBY6YNZZSK1Kz5-302">
          <mxGeometry relative="1" as="geometry">
            <mxPoint x="292" y="1526" as="sourcePoint" />
            <mxPoint x="352" y="1608" as="targetPoint" />
          </mxGeometry>
        </mxCell>
        <mxCell id="sELhnHyBY6YNZZSK1Kz5-305" value="" style="edgeStyle=orthogonalEdgeStyle;rounded=0;orthogonalLoop=1;jettySize=auto;html=1;fillColor=#008a00;strokeColor=#005700;curved=1;exitX=0.185;exitY=1.01;exitDx=0;exitDy=0;exitPerimeter=0;" edge="1" parent="1">
          <mxGeometry relative="1" as="geometry">
            <mxPoint x="144.39999999999998" y="1608.4" as="sourcePoint" />
            <mxPoint x="332" y="1740" as="targetPoint" />
            <Array as="points">
              <mxPoint x="144" y="1740" />
            </Array>
          </mxGeometry>
        </mxCell>
        <mxCell id="sELhnHyBY6YNZZSK1Kz5-306" value="&lt;div style=&quot;text-align: left;&quot;&gt;&lt;span style=&quot;background-color: transparent;&quot;&gt;&lt;font style=&quot;color: light-dark(rgb(0, 0, 0), rgb(0, 204, 0));&quot;&gt;.&lt;/font&gt;&lt;/span&gt;&lt;/div&gt;" style="text;html=1;align=center;verticalAlign=middle;whiteSpace=wrap;rounded=0;" vertex="1" parent="1">
          <mxGeometry x="324" y="1550" width="60" height="30" as="geometry" />
        </mxCell>
        <mxCell id="sELhnHyBY6YNZZSK1Kz5-307" value="&lt;div style=&quot;text-align: left;&quot;&gt;&lt;span style=&quot;background-color: transparent;&quot;&gt;&lt;font style=&quot;color: light-dark(rgb(0, 0, 0), rgb(0, 204, 0));&quot;&gt;.&lt;/font&gt;&lt;/span&gt;&lt;/div&gt;" style="text;html=1;align=center;verticalAlign=middle;whiteSpace=wrap;rounded=0;" vertex="1" parent="1">
          <mxGeometry x="292" y="1608" width="60" height="30" as="geometry" />
        </mxCell>
        <mxCell id="sELhnHyBY6YNZZSK1Kz5-311" value="&lt;div style=&quot;text-align: left;&quot;&gt;&lt;span style=&quot;background-color: transparent;&quot;&gt;&lt;font style=&quot;color: light-dark(rgb(0, 0, 0), rgb(0, 204, 0));&quot;&gt;.&lt;/font&gt;&lt;/span&gt;&lt;/div&gt;" style="text;html=1;align=center;verticalAlign=middle;whiteSpace=wrap;rounded=0;" vertex="1" parent="1">
          <mxGeometry x="127" y="1648" width="60" height="30" as="geometry" />
        </mxCell>
        <mxCell id="sELhnHyBY6YNZZSK1Kz5-312" value="&lt;div style=&quot;text-align: left;&quot;&gt;&lt;span style=&quot;background-color: transparent;&quot;&gt;&lt;font style=&quot;color: light-dark(rgb(0, 0, 0), rgb(0, 204, 0));&quot;&gt;.&lt;/font&gt;&lt;/span&gt;&lt;/div&gt;" style="text;html=1;align=center;verticalAlign=middle;whiteSpace=wrap;rounded=0;" vertex="1" parent="1">
          <mxGeometry x="141" y="1659" width="60" height="30" as="geometry" />
        </mxCell>
        <mxCell id="sELhnHyBY6YNZZSK1Kz5-313" value="" style="ellipse;whiteSpace=wrap;html=1;strokeColor=light-dark(#000000,#FF3333);" vertex="1" parent="1">
          <mxGeometry x="346" y="1400" width="40" height="40" as="geometry" />
        </mxCell>
        <mxCell id="sELhnHyBY6YNZZSK1Kz5-315" value="" style="edgeStyle=orthogonalEdgeStyle;rounded=0;orthogonalLoop=1;jettySize=auto;html=1;curved=1;exitX=0.5;exitY=0;exitDx=0;exitDy=0;fillColor=#a20025;strokeColor=#6F0000;entryX=0;entryY=0.5;entryDx=0;entryDy=0;" edge="1" parent="1" source="sELhnHyBY6YNZZSK1Kz5-281" target="sELhnHyBY6YNZZSK1Kz5-313">
          <mxGeometry relative="1" as="geometry">
            <mxPoint x="132" y="1526" as="sourcePoint" />
            <mxPoint x="212" y="1450" as="targetPoint" />
          </mxGeometry>
        </mxCell>
        <mxCell id="sELhnHyBY6YNZZSK1Kz5-316" value="&lt;div style=&quot;text-align: left;&quot;&gt;&lt;span style=&quot;background-color: transparent;&quot;&gt;&lt;font style=&quot;color: light-dark(rgb(0, 0, 0), rgb(255, 51, 51));&quot;&gt;[0-9]&lt;/font&gt;&lt;/span&gt;&lt;/div&gt;" style="text;html=1;align=center;verticalAlign=middle;whiteSpace=wrap;rounded=0;" vertex="1" parent="1">
          <mxGeometry x="182" y="1416" width="60" height="30" as="geometry" />
        </mxCell>
        <mxCell id="sELhnHyBY6YNZZSK1Kz5-317" value="&lt;div style=&quot;text-align: left;&quot;&gt;&lt;span style=&quot;background-color: transparent;&quot;&gt;&lt;font style=&quot;color: light-dark(rgb(0, 0, 0), rgb(255, 51, 51));&quot;&gt;[0-9]&lt;/font&gt;&lt;/span&gt;&lt;/div&gt;" style="text;html=1;align=center;verticalAlign=middle;whiteSpace=wrap;rounded=0;" vertex="1" parent="1">
          <mxGeometry x="342" y="1480" width="60" height="30" as="geometry" />
        </mxCell>
        <mxCell id="sELhnHyBY6YNZZSK1Kz5-318" value="&lt;div style=&quot;text-align: left;&quot;&gt;&lt;span style=&quot;background-color: transparent; color: light-dark(rgb(0, 0, 0), rgb(255, 255, 255));&quot;&gt;[0-9]&lt;/span&gt;&lt;/div&gt;" style="text;html=1;align=center;verticalAlign=middle;whiteSpace=wrap;rounded=0;" vertex="1" parent="1">
          <mxGeometry x="325" y="1350" width="60" height="30" as="geometry" />
        </mxCell>
        <mxCell id="sELhnHyBY6YNZZSK1Kz5-319" value="" style="edgeStyle=orthogonalEdgeStyle;rounded=0;orthogonalLoop=1;jettySize=auto;html=1;curved=1;exitX=1;exitY=1;exitDx=0;exitDy=0;" edge="1" parent="1">
          <mxGeometry relative="1" as="geometry">
            <mxPoint x="351" y="1403.97" as="sourcePoint" />
            <mxPoint x="370" y="1398.97" as="targetPoint" />
            <Array as="points">
              <mxPoint x="340" y="1403.97" />
              <mxPoint x="340" y="1374.97" />
              <mxPoint x="370" y="1374.97" />
            </Array>
          </mxGeometry>
        </mxCell>
        <mxCell id="sELhnHyBY6YNZZSK1Kz5-323" value="" style="edgeStyle=orthogonalEdgeStyle;rounded=0;orthogonalLoop=1;jettySize=auto;html=1;" edge="1" parent="1" source="sELhnHyBY6YNZZSK1Kz5-320" target="sELhnHyBY6YNZZSK1Kz5-322">
          <mxGeometry relative="1" as="geometry" />
        </mxCell>
        <mxCell id="sELhnHyBY6YNZZSK1Kz5-320" value="" style="ellipse;whiteSpace=wrap;html=1;" vertex="1" parent="1">
          <mxGeometry x="479" y="1330" width="40" height="40" as="geometry" />
        </mxCell>
        <mxCell id="sELhnHyBY6YNZZSK1Kz5-321" value="" style="ellipse;whiteSpace=wrap;html=1;" vertex="1" parent="1">
          <mxGeometry x="479" y="1397" width="40" height="40" as="geometry" />
        </mxCell>
        <mxCell id="sELhnHyBY6YNZZSK1Kz5-322" value="" style="ellipse;whiteSpace=wrap;html=1;" vertex="1" parent="1">
          <mxGeometry x="599" y="1330" width="40" height="40" as="geometry" />
        </mxCell>
        <mxCell id="sELhnHyBY6YNZZSK1Kz5-326" value="" style="rounded=0;orthogonalLoop=1;jettySize=auto;html=1;exitX=0.96;exitY=0.277;exitDx=0;exitDy=0;exitPerimeter=0;" edge="1" parent="1" source="sELhnHyBY6YNZZSK1Kz5-313" target="sELhnHyBY6YNZZSK1Kz5-320">
          <mxGeometry relative="1" as="geometry">
            <mxPoint x="392" y="1410" as="sourcePoint" />
            <mxPoint x="472" y="1410" as="targetPoint" />
          </mxGeometry>
        </mxCell>
        <mxCell id="sELhnHyBY6YNZZSK1Kz5-327" value="&lt;div style=&quot;text-align: left;&quot;&gt;&lt;span style=&quot;background-color: transparent; color: light-dark(rgb(0, 0, 0), rgb(255, 255, 255));&quot;&gt;e&lt;/span&gt;&lt;/div&gt;" style="text;html=1;align=center;verticalAlign=middle;whiteSpace=wrap;rounded=0;" vertex="1" parent="1">
          <mxGeometry x="402" y="1360" width="60" height="30" as="geometry" />
        </mxCell>
        <mxCell id="sELhnHyBY6YNZZSK1Kz5-328" value="" style="rounded=0;orthogonalLoop=1;jettySize=auto;html=1;exitX=1;exitY=0.5;exitDx=0;exitDy=0;entryX=0;entryY=0.5;entryDx=0;entryDy=0;" edge="1" parent="1" source="sELhnHyBY6YNZZSK1Kz5-313" target="sELhnHyBY6YNZZSK1Kz5-321">
          <mxGeometry relative="1" as="geometry">
            <mxPoint x="395" y="1420" as="sourcePoint" />
            <mxPoint x="491" y="1369" as="targetPoint" />
          </mxGeometry>
        </mxCell>
        <mxCell id="sELhnHyBY6YNZZSK1Kz5-329" value="&lt;div style=&quot;text-align: left;&quot;&gt;&lt;span style=&quot;background-color: transparent; color: light-dark(rgb(0, 0, 0), rgb(255, 255, 255));&quot;&gt;.&lt;/span&gt;&lt;/div&gt;" style="text;html=1;align=center;verticalAlign=middle;whiteSpace=wrap;rounded=0;" vertex="1" parent="1">
          <mxGeometry x="412" y="1394" width="60" height="30" as="geometry" />
        </mxCell>
        <mxCell id="sELhnHyBY6YNZZSK1Kz5-330" value="" style="ellipse;shape=doubleEllipse;whiteSpace=wrap;html=1;aspect=fixed;" vertex="1" parent="1">
          <mxGeometry x="727" y="1450" width="40" height="40" as="geometry" />
        </mxCell>
        <mxCell id="sELhnHyBY6YNZZSK1Kz5-331" value="" style="edgeStyle=orthogonalEdgeStyle;rounded=0;orthogonalLoop=1;jettySize=auto;html=1;curved=1;exitX=1;exitY=1;exitDx=0;exitDy=0;" edge="1" parent="1">
          <mxGeometry relative="1" as="geometry">
            <mxPoint x="604" y="1364.0285714285712" as="sourcePoint" />
            <mxPoint x="623" y="1369.0285714285712" as="targetPoint" />
            <Array as="points">
              <mxPoint x="593" y="1364.0285714285712" />
              <mxPoint x="593" y="1393.0285714285712" />
              <mxPoint x="623" y="1393.0285714285712" />
            </Array>
          </mxGeometry>
        </mxCell>
        <mxCell id="sELhnHyBY6YNZZSK1Kz5-332" value="&lt;div style=&quot;text-align: left;&quot;&gt;&lt;span style=&quot;background-color: transparent; color: light-dark(rgb(0, 0, 0), rgb(255, 255, 255));&quot;&gt;[0-9]&lt;/span&gt;&lt;/div&gt;" style="text;html=1;align=center;verticalAlign=middle;whiteSpace=wrap;rounded=0;" vertex="1" parent="1">
          <mxGeometry x="577" y="1386" width="60" height="30" as="geometry" />
        </mxCell>
        <mxCell id="sELhnHyBY6YNZZSK1Kz5-333" value="&lt;div style=&quot;text-align: left;&quot;&gt;&lt;span style=&quot;background-color: transparent; color: light-dark(rgb(0, 0, 0), rgb(255, 255, 255));&quot;&gt;[0-9]&lt;/span&gt;&lt;/div&gt;" style="text;html=1;align=center;verticalAlign=middle;whiteSpace=wrap;rounded=0;" vertex="1" parent="1">
          <mxGeometry x="529" y="1325" width="60" height="30" as="geometry" />
        </mxCell>
        <mxCell id="sELhnHyBY6YNZZSK1Kz5-334" value="" style="edgeStyle=orthogonalEdgeStyle;rounded=0;orthogonalLoop=1;jettySize=auto;html=1;curved=1;exitX=0.975;exitY=0.851;exitDx=0;exitDy=0;exitPerimeter=0;" edge="1" parent="1">
          <mxGeometry relative="1" as="geometry">
            <mxPoint x="382.0000000000001" y="1434.04" as="sourcePoint" />
            <mxPoint x="729" y="1480" as="targetPoint" />
            <Array as="points">
              <mxPoint x="382" y="1480" />
            </Array>
          </mxGeometry>
        </mxCell>
        <mxCell id="sELhnHyBY6YNZZSK1Kz5-336" value="" style="rounded=0;orthogonalLoop=1;jettySize=auto;html=1;exitX=1;exitY=0.5;exitDx=0;exitDy=0;entryX=0.001;entryY=0.365;entryDx=0;entryDy=0;entryPerimeter=0;" edge="1" parent="1" source="sELhnHyBY6YNZZSK1Kz5-321" target="sELhnHyBY6YNZZSK1Kz5-330">
          <mxGeometry relative="1" as="geometry">
            <mxPoint x="529" y="1427" as="sourcePoint" />
            <mxPoint x="622" y="1424" as="targetPoint" />
          </mxGeometry>
        </mxCell>
        <mxCell id="sELhnHyBY6YNZZSK1Kz5-337" value="" style="rounded=0;orthogonalLoop=1;jettySize=auto;html=1;exitX=0.963;exitY=0.775;exitDx=0;exitDy=0;exitPerimeter=0;" edge="1" parent="1">
          <mxGeometry relative="1" as="geometry">
            <mxPoint x="635.52" y="1362" as="sourcePoint" />
            <mxPoint x="730.8362898363594" y="1456.879471879541" as="targetPoint" />
          </mxGeometry>
        </mxCell>
        <mxCell id="sELhnHyBY6YNZZSK1Kz5-338" value="&lt;div style=&quot;text-align: left;&quot;&gt;&lt;span style=&quot;background-color: transparent; color: light-dark(rgb(0, 0, 0), rgb(255, 255, 255));&quot;&gt;f&lt;/span&gt;&lt;/div&gt;" style="text;html=1;align=center;verticalAlign=middle;whiteSpace=wrap;rounded=0;" vertex="1" parent="1">
          <mxGeometry x="652" y="1380" width="60" height="30" as="geometry" />
        </mxCell>
        <mxCell id="sELhnHyBY6YNZZSK1Kz5-339" value="&lt;div style=&quot;text-align: left;&quot;&gt;&lt;span style=&quot;background-color: transparent; color: light-dark(rgb(0, 0, 0), rgb(255, 255, 255));&quot;&gt;f&lt;/span&gt;&lt;/div&gt;" style="text;html=1;align=center;verticalAlign=middle;whiteSpace=wrap;rounded=0;" vertex="1" parent="1">
          <mxGeometry x="612" y="1420" width="60" height="30" as="geometry" />
        </mxCell>
        <mxCell id="sELhnHyBY6YNZZSK1Kz5-340" value="&lt;div style=&quot;text-align: left;&quot;&gt;&lt;span style=&quot;background-color: transparent; color: light-dark(rgb(0, 0, 0), rgb(255, 255, 255));&quot;&gt;f&lt;/span&gt;&lt;/div&gt;" style="text;html=1;align=center;verticalAlign=middle;whiteSpace=wrap;rounded=0;" vertex="1" parent="1">
          <mxGeometry x="482" y="1446" width="60" height="30" as="geometry" />
        </mxCell>
        <mxCell id="sELhnHyBY6YNZZSK1Kz5-341" value="" style="edgeStyle=orthogonalEdgeStyle;rounded=0;orthogonalLoop=1;jettySize=auto;html=1;curved=1;" edge="1" parent="1">
          <mxGeometry relative="1" as="geometry">
            <mxPoint x="370" y="1740" as="sourcePoint" />
            <mxPoint x="460" y="1763" as="targetPoint" />
            <Array as="points">
              <mxPoint x="370" y="1763" />
            </Array>
          </mxGeometry>
        </mxCell>
        <mxCell id="sELhnHyBY6YNZZSK1Kz5-342" value="&lt;div style=&quot;text-align: left;&quot;&gt;&lt;span style=&quot;background-color: transparent; color: light-dark(rgb(0, 0, 0), rgb(255, 255, 255));&quot;&gt;[0-9]&lt;/span&gt;&lt;/div&gt;" style="text;html=1;align=center;verticalAlign=middle;whiteSpace=wrap;rounded=0;" vertex="1" parent="1">
          <mxGeometry x="392" y="1735" width="60" height="30" as="geometry" />
        </mxCell>
        <mxCell id="sELhnHyBY6YNZZSK1Kz5-343" value="" style="ellipse;whiteSpace=wrap;html=1;" vertex="1" parent="1">
          <mxGeometry x="460" y="1740" width="40" height="40" as="geometry" />
        </mxCell>
        <mxCell id="sELhnHyBY6YNZZSK1Kz5-344" value="" style="edgeStyle=orthogonalEdgeStyle;rounded=0;orthogonalLoop=1;jettySize=auto;html=1;curved=1;exitX=1;exitY=1;exitDx=0;exitDy=0;" edge="1" parent="1">
          <mxGeometry relative="1" as="geometry">
            <mxPoint x="495.00030303030303" y="1775.030303030303" as="sourcePoint" />
            <mxPoint x="476.00030303030303" y="1780.030303030303" as="targetPoint" />
            <Array as="points">
              <mxPoint x="506.00030303030303" y="1775.030303030303" />
              <mxPoint x="506.00030303030303" y="1804.030303030303" />
              <mxPoint x="476.00030303030303" y="1804.030303030303" />
            </Array>
          </mxGeometry>
        </mxCell>
        <mxCell id="sELhnHyBY6YNZZSK1Kz5-345" value="&lt;div style=&quot;text-align: left;&quot;&gt;&lt;span style=&quot;background-color: transparent; color: light-dark(rgb(0, 0, 0), rgb(255, 255, 255));&quot;&gt;[0-9]&lt;/span&gt;&lt;/div&gt;" style="text;html=1;align=center;verticalAlign=middle;whiteSpace=wrap;rounded=0;" vertex="1" parent="1">
          <mxGeometry x="463" y="1798" width="60" height="30" as="geometry" />
        </mxCell>
        <mxCell id="sELhnHyBY6YNZZSK1Kz5-346" value="" style="edgeStyle=orthogonalEdgeStyle;rounded=0;orthogonalLoop=1;jettySize=auto;html=1;" edge="1" parent="1" source="sELhnHyBY6YNZZSK1Kz5-347" target="sELhnHyBY6YNZZSK1Kz5-348">
          <mxGeometry relative="1" as="geometry" />
        </mxCell>
        <mxCell id="sELhnHyBY6YNZZSK1Kz5-347" value="" style="ellipse;whiteSpace=wrap;html=1;" vertex="1" parent="1">
          <mxGeometry x="531.5" y="1687" width="40" height="40" as="geometry" />
        </mxCell>
        <mxCell id="sELhnHyBY6YNZZSK1Kz5-348" value="" style="ellipse;whiteSpace=wrap;html=1;" vertex="1" parent="1">
          <mxGeometry x="651.5" y="1687" width="40" height="40" as="geometry" />
        </mxCell>
        <mxCell id="sELhnHyBY6YNZZSK1Kz5-349" value="" style="rounded=0;orthogonalLoop=1;jettySize=auto;html=1;exitX=0.96;exitY=0.277;exitDx=0;exitDy=0;exitPerimeter=0;" edge="1" parent="1">
          <mxGeometry relative="1" as="geometry">
            <mxPoint x="479.5" y="1739" as="sourcePoint" />
            <mxPoint x="532" y="1710" as="targetPoint" />
          </mxGeometry>
        </mxCell>
        <mxCell id="sELhnHyBY6YNZZSK1Kz5-350" value="&lt;div style=&quot;text-align: left;&quot;&gt;&lt;span style=&quot;background-color: transparent; color: light-dark(rgb(0, 0, 0), rgb(255, 255, 255));&quot;&gt;e&lt;/span&gt;&lt;/div&gt;" style="text;html=1;align=center;verticalAlign=middle;whiteSpace=wrap;rounded=0;" vertex="1" parent="1">
          <mxGeometry x="472" y="1701" width="60" height="30" as="geometry" />
        </mxCell>
        <mxCell id="sELhnHyBY6YNZZSK1Kz5-351" value="" style="edgeStyle=orthogonalEdgeStyle;rounded=0;orthogonalLoop=1;jettySize=auto;html=1;curved=1;exitX=1;exitY=1;exitDx=0;exitDy=0;" edge="1" parent="1">
          <mxGeometry relative="1" as="geometry">
            <mxPoint x="656.5" y="1721.0285714285712" as="sourcePoint" />
            <mxPoint x="675.5" y="1726.0285714285712" as="targetPoint" />
            <Array as="points">
              <mxPoint x="645.5" y="1721.0285714285712" />
              <mxPoint x="645.5" y="1750.0285714285712" />
              <mxPoint x="675.5" y="1750.0285714285712" />
            </Array>
          </mxGeometry>
        </mxCell>
        <mxCell id="sELhnHyBY6YNZZSK1Kz5-352" value="&lt;div style=&quot;text-align: left;&quot;&gt;&lt;span style=&quot;background-color: transparent; color: light-dark(rgb(0, 0, 0), rgb(255, 255, 255));&quot;&gt;[0-9]&lt;/span&gt;&lt;/div&gt;" style="text;html=1;align=center;verticalAlign=middle;whiteSpace=wrap;rounded=0;" vertex="1" parent="1">
          <mxGeometry x="629.5" y="1743" width="60" height="30" as="geometry" />
        </mxCell>
        <mxCell id="sELhnHyBY6YNZZSK1Kz5-353" value="&lt;div style=&quot;text-align: left;&quot;&gt;&lt;span style=&quot;background-color: transparent; color: light-dark(rgb(0, 0, 0), rgb(255, 255, 255));&quot;&gt;[0-9]&lt;/span&gt;&lt;/div&gt;" style="text;html=1;align=center;verticalAlign=middle;whiteSpace=wrap;rounded=0;" vertex="1" parent="1">
          <mxGeometry x="581.5" y="1682" width="60" height="30" as="geometry" />
        </mxCell>
        <mxCell id="sELhnHyBY6YNZZSK1Kz5-354" value="" style="edgeStyle=orthogonalEdgeStyle;rounded=0;orthogonalLoop=1;jettySize=auto;html=1;curved=1;exitX=0.975;exitY=0.851;exitDx=0;exitDy=0;exitPerimeter=0;entryX=0.788;entryY=1.025;entryDx=0;entryDy=0;entryPerimeter=0;" edge="1" parent="1">
          <mxGeometry relative="1" as="geometry">
            <mxPoint x="501.0000000000001" y="1758" as="sourcePoint" />
            <mxPoint x="758.5199999999998" y="1488.0000000000002" as="targetPoint" />
            <Array as="points">
              <mxPoint x="501" y="1797" />
              <mxPoint x="759" y="1797" />
            </Array>
          </mxGeometry>
        </mxCell>
        <mxCell id="sELhnHyBY6YNZZSK1Kz5-356" value="" style="edgeStyle=orthogonalEdgeStyle;rounded=0;orthogonalLoop=1;jettySize=auto;html=1;curved=1;entryX=0.246;entryY=1.011;entryDx=0;entryDy=0;entryPerimeter=0;exitX=1;exitY=0;exitDx=0;exitDy=0;" edge="1" parent="1" source="sELhnHyBY6YNZZSK1Kz5-348">
          <mxGeometry relative="1" as="geometry">
            <mxPoint x="687" y="1690" as="sourcePoint" />
            <mxPoint x="741.8399999999999" y="1490.44" as="targetPoint" />
            <Array as="points">
              <mxPoint x="742" y="1693" />
            </Array>
          </mxGeometry>
        </mxCell>
        <mxCell id="sELhnHyBY6YNZZSK1Kz5-357" value="&lt;div style=&quot;text-align: left;&quot;&gt;&lt;span style=&quot;background-color: transparent; color: light-dark(rgb(0, 0, 0), rgb(255, 255, 255));&quot;&gt;f&lt;/span&gt;&lt;/div&gt;" style="text;html=1;align=center;verticalAlign=middle;whiteSpace=wrap;rounded=0;" vertex="1" parent="1">
          <mxGeometry x="552" y="1769" width="60" height="30" as="geometry" />
        </mxCell>
        <mxCell id="sELhnHyBY6YNZZSK1Kz5-358" value="&lt;div style=&quot;text-align: left;&quot;&gt;&lt;span style=&quot;background-color: transparent; color: light-dark(rgb(0, 0, 0), rgb(255, 255, 255));&quot;&gt;f&lt;/span&gt;&lt;/div&gt;" style="text;html=1;align=center;verticalAlign=middle;whiteSpace=wrap;rounded=0;" vertex="1" parent="1">
          <mxGeometry x="682" y="1648" width="60" height="30" as="geometry" />
        </mxCell>
        <mxCell id="sELhnHyBY6YNZZSK1Kz5-359" value="char:&amp;nbsp; &amp;nbsp;&#39;[a-zA-Z!-~]&#39;" style="text;html=1;align=left;verticalAlign=middle;whiteSpace=wrap;rounded=0;" vertex="1" parent="1">
          <mxGeometry x="80" y="1910" width="370" height="30" as="geometry" />
        </mxCell>
        <mxCell id="sELhnHyBY6YNZZSK1Kz5-375" value="" style="edgeStyle=orthogonalEdgeStyle;rounded=0;orthogonalLoop=1;jettySize=auto;html=1;" edge="1" parent="1" source="sELhnHyBY6YNZZSK1Kz5-362" target="sELhnHyBY6YNZZSK1Kz5-374">
          <mxGeometry relative="1" as="geometry" />
        </mxCell>
        <mxCell id="sELhnHyBY6YNZZSK1Kz5-362" value="" style="ellipse;whiteSpace=wrap;html=1;" vertex="1" parent="1">
          <mxGeometry x="130" y="1976" width="40" height="40" as="geometry" />
        </mxCell>
        <mxCell id="sELhnHyBY6YNZZSK1Kz5-363" value="" style="ellipse;shape=doubleEllipse;whiteSpace=wrap;html=1;aspect=fixed;" vertex="1" parent="1">
          <mxGeometry x="514" y="1975" width="40" height="40" as="geometry" />
        </mxCell>
        <mxCell id="sELhnHyBY6YNZZSK1Kz5-364" value="" style="edgeStyle=orthogonalEdgeStyle;rounded=0;orthogonalLoop=1;jettySize=auto;html=1;" edge="1" parent="1">
          <mxGeometry relative="1" as="geometry">
            <mxPoint x="130" y="1995.76" as="targetPoint" />
            <mxPoint x="90" y="1995.76" as="sourcePoint" />
          </mxGeometry>
        </mxCell>
        <mxCell id="sELhnHyBY6YNZZSK1Kz5-366" value="" style="edgeStyle=orthogonalEdgeStyle;rounded=0;orthogonalLoop=1;jettySize=auto;html=1;" edge="1" parent="1">
          <mxGeometry relative="1" as="geometry">
            <mxPoint x="422" y="1995.7" as="sourcePoint" />
            <mxPoint x="514.5" y="1995.7" as="targetPoint" />
          </mxGeometry>
        </mxCell>
        <mxCell id="sELhnHyBY6YNZZSK1Kz5-368" value="&lt;div style=&quot;text-align: left;&quot;&gt;&lt;span style=&quot;background-color: transparent; color: light-dark(rgb(0, 0, 0), rgb(255, 255, 255));&quot;&gt;&#39;&lt;/span&gt;&lt;/div&gt;" style="text;html=1;align=center;verticalAlign=middle;whiteSpace=wrap;rounded=0;" vertex="1" parent="1">
          <mxGeometry x="440" y="1970" width="60" height="30" as="geometry" />
        </mxCell>
        <mxCell id="sELhnHyBY6YNZZSK1Kz5-372" value="&lt;span style=&quot;text-align: left;&quot;&gt;[a-zA-Z!-~]&lt;/span&gt;" style="text;html=1;align=center;verticalAlign=middle;whiteSpace=wrap;rounded=0;" vertex="1" parent="1">
          <mxGeometry x="294" y="1970" width="90" height="30" as="geometry" />
        </mxCell>
        <mxCell id="sELhnHyBY6YNZZSK1Kz5-378" value="" style="edgeStyle=orthogonalEdgeStyle;rounded=0;orthogonalLoop=1;jettySize=auto;html=1;" edge="1" parent="1" source="sELhnHyBY6YNZZSK1Kz5-374" target="sELhnHyBY6YNZZSK1Kz5-377">
          <mxGeometry relative="1" as="geometry" />
        </mxCell>
        <mxCell id="sELhnHyBY6YNZZSK1Kz5-374" value="" style="ellipse;whiteSpace=wrap;html=1;" vertex="1" parent="1">
          <mxGeometry x="262" y="1976" width="40" height="40" as="geometry" />
        </mxCell>
        <mxCell id="sELhnHyBY6YNZZSK1Kz5-377" value="" style="ellipse;whiteSpace=wrap;html=1;" vertex="1" parent="1">
          <mxGeometry x="382" y="1976" width="40" height="40" as="geometry" />
        </mxCell>
        <mxCell id="sELhnHyBY6YNZZSK1Kz5-379" value="&lt;div style=&quot;text-align: left;&quot;&gt;&lt;span style=&quot;background-color: transparent; color: light-dark(rgb(0, 0, 0), rgb(255, 255, 255));&quot;&gt;&#39;&lt;/span&gt;&lt;/div&gt;" style="text;html=1;align=center;verticalAlign=middle;whiteSpace=wrap;rounded=0;" vertex="1" parent="1">
          <mxGeometry x="187" y="1970" width="60" height="30" as="geometry" />
        </mxCell>
        <mxCell id="sELhnHyBY6YNZZSK1Kz5-380" value="String:&amp;nbsp; &amp;nbsp;&quot;[a-zA-Z!-~]*&quot;" style="text;html=1;align=left;verticalAlign=middle;whiteSpace=wrap;rounded=0;" vertex="1" parent="1">
          <mxGeometry x="80" y="2090" width="370" height="30" as="geometry" />
        </mxCell>
        <mxCell id="sELhnHyBY6YNZZSK1Kz5-381" value="" style="edgeStyle=orthogonalEdgeStyle;rounded=0;orthogonalLoop=1;jettySize=auto;html=1;" edge="1" parent="1" source="sELhnHyBY6YNZZSK1Kz5-382" target="sELhnHyBY6YNZZSK1Kz5-389">
          <mxGeometry relative="1" as="geometry" />
        </mxCell>
        <mxCell id="sELhnHyBY6YNZZSK1Kz5-382" value="" style="ellipse;whiteSpace=wrap;html=1;" vertex="1" parent="1">
          <mxGeometry x="130" y="2156" width="40" height="40" as="geometry" />
        </mxCell>
        <mxCell id="sELhnHyBY6YNZZSK1Kz5-383" value="" style="ellipse;shape=doubleEllipse;whiteSpace=wrap;html=1;aspect=fixed;" vertex="1" parent="1">
          <mxGeometry x="394" y="2156" width="40" height="40" as="geometry" />
        </mxCell>
        <mxCell id="sELhnHyBY6YNZZSK1Kz5-384" value="" style="edgeStyle=orthogonalEdgeStyle;rounded=0;orthogonalLoop=1;jettySize=auto;html=1;" edge="1" parent="1">
          <mxGeometry relative="1" as="geometry">
            <mxPoint x="130" y="2175.76" as="targetPoint" />
            <mxPoint x="90" y="2175.76" as="sourcePoint" />
          </mxGeometry>
        </mxCell>
        <mxCell id="sELhnHyBY6YNZZSK1Kz5-385" value="" style="edgeStyle=orthogonalEdgeStyle;rounded=0;orthogonalLoop=1;jettySize=auto;html=1;" edge="1" parent="1">
          <mxGeometry relative="1" as="geometry">
            <mxPoint x="303" y="2175.6299999999997" as="sourcePoint" />
            <mxPoint x="395.5" y="2175.6299999999997" as="targetPoint" />
          </mxGeometry>
        </mxCell>
        <mxCell id="sELhnHyBY6YNZZSK1Kz5-386" value="&lt;div style=&quot;text-align: left;&quot;&gt;&lt;span style=&quot;background-color: transparent; color: light-dark(rgb(0, 0, 0), rgb(255, 255, 255));&quot;&gt;&quot;&lt;/span&gt;&lt;/div&gt;" style="text;html=1;align=center;verticalAlign=middle;whiteSpace=wrap;rounded=0;" vertex="1" parent="1">
          <mxGeometry x="312" y="2154" width="60" height="30" as="geometry" />
        </mxCell>
        <mxCell id="sELhnHyBY6YNZZSK1Kz5-387" value="&lt;span style=&quot;text-align: left;&quot;&gt;[a-zA-Z!-~]&lt;/span&gt;" style="text;html=1;align=center;verticalAlign=middle;whiteSpace=wrap;rounded=0;" vertex="1" parent="1">
          <mxGeometry x="251" y="2215" width="90" height="30" as="geometry" />
        </mxCell>
        <mxCell id="sELhnHyBY6YNZZSK1Kz5-389" value="" style="ellipse;whiteSpace=wrap;html=1;" vertex="1" parent="1">
          <mxGeometry x="262" y="2156" width="40" height="40" as="geometry" />
        </mxCell>
        <mxCell id="sELhnHyBY6YNZZSK1Kz5-391" value="&lt;div style=&quot;text-align: left;&quot;&gt;&lt;span style=&quot;background-color: transparent; color: light-dark(rgb(0, 0, 0), rgb(255, 255, 255));&quot;&gt;&quot;&lt;/span&gt;&lt;/div&gt;" style="text;html=1;align=center;verticalAlign=middle;whiteSpace=wrap;rounded=0;" vertex="1" parent="1">
          <mxGeometry x="187" y="2153" width="60" height="30" as="geometry" />
        </mxCell>
        <mxCell id="sELhnHyBY6YNZZSK1Kz5-392" value="" style="edgeStyle=orthogonalEdgeStyle;rounded=0;orthogonalLoop=1;jettySize=auto;html=1;curved=1;exitX=1;exitY=1;exitDx=0;exitDy=0;" edge="1" parent="1">
          <mxGeometry relative="1" as="geometry">
            <mxPoint x="296.960303030303" y="2191.030303030303" as="sourcePoint" />
            <mxPoint x="277.960303030303" y="2196.030303030303" as="targetPoint" />
            <Array as="points">
              <mxPoint x="307.960303030303" y="2191.030303030303" />
              <mxPoint x="307.960303030303" y="2220.030303030303" />
              <mxPoint x="277.960303030303" y="2220.030303030303" />
            </Array>
          </mxGeometry>
        </mxCell>
      </root>
    </mxGraphModel>
  </diagram>
</mxfile>
